<?xml version="1.0" standalone="no"?>
<!DOCTYPE svg PUBLIC "-//W3C//DTD SVG 20010904//EN"
 "http://www.w3.org/TR/2001/REC-SVG-20010904/DTD/svg10.dtd">
<svg version="1.0" xmlns="http://www.w3.org/2000/svg"
 width="318.000000pt" height="318.000000pt" viewBox="0 0 318.000000 318.000000"
 preserveAspectRatio="xMidYMid meet">

<g transform="translate(0.000000,318.000000) scale(0.100000,-0.100000)"
fill="#000000" stroke="none">
<path d="M2485 2701 c-200 -71 -339 -179 -453 -354 -70 -107 -105 -198 -162
-419 -58 -229 -106 -370 -165 -490 -47 -94 -112 -196 -153 -240 -48 -52 8 -33
114 38 167 111 300 255 376 409 46 92 61 141 97 311 65 309 153 479 346 672
57 56 98 102 92 102 -7 0 -48 -13 -92 -29z"/>
<path d="M1322 2249 c-50 -16 -77 -33 -133 -87 -235 -221 -306 -498 -202 -787
28 -76 56 -125 103 -178 75 -86 200 -131 291 -107 49 14 46 17 -41 40 -163 44
-220 322 -145 697 45 219 96 321 179 353 112 42 128 -140 36 -405 -17 -49 -65
-155 -106 -234 -42 -79 -73 -145 -70 -148 7 -7 115 74 180 136 83 80 147 181
183 292 56 170 53 288 -9 363 -62 76 -160 100 -266 65z"/>
<path d="M555 2113 c-71 -37 -105 -90 -125 -191 -27 -134 10 -350 83 -486 92
-172 280 -286 404 -245 32 10 35 13 18 20 -11 4 -32 10 -48 14 -63 13 -139
114 -183 245 -14 41 -19 83 -18 165 0 94 5 125 32 214 21 67 32 126 32 164 0
51 -4 62 -29 88 -25 25 -37 29 -83 29 -29 -1 -66 -8 -83 -17z"/>
<path d="M2478 1800 c-177 -28 -291 -99 -468 -294 -138 -151 -199 -208 -303
-281 -102 -71 -100 -75 26 -51 145 28 309 134 446 287 128 142 294 249 459
294 34 10 62 21 62 26 0 18 -144 31 -222 19z"/>
<path d="M66 858 c5 -7 29 -78 55 -158 l46 -145 18 60 c46 159 58 195 65 195
4 0 25 -59 46 -131 21 -73 39 -128 41 -123 6 22 85 281 90 297 3 11 0 17 -9
17 -10 0 -22 -26 -37 -77 -12 -43 -27 -89 -33 -103 -10 -23 -12 -21 -30 40
-34 116 -42 135 -65 138 -14 2 -23 -3 -26 -15 -34 -121 -51 -173 -58 -173 -5
0 -13 19 -19 43 -37 140 -40 147 -66 147 -17 0 -23 -4 -18 -12z"/>
<path d="M855 863 l-30 -4 0 -145 0 -145 95 3 c84 3 95 5 98 22 3 15 0 17 -14
11 -11 -5 -45 -11 -76 -13 l-58 -4 0 66 0 66 46 0 c25 0 54 -5 65 -10 16 -9
19 -7 19 10 0 18 -6 20 -65 20 l-65 0 0 50 c0 61 10 67 86 53 48 -9 54 -8 52
6 -3 12 -17 16 -63 17 -33 1 -73 -1 -90 -3z"/>
<path d="M1658 765 c2 -60 0 -105 -5 -105 -5 0 -59 45 -119 99 l-109 100 -2
-32 c-1 -18 -4 -83 -5 -145 -3 -94 -1 -112 12 -112 13 0 14 17 12 105 -2 58 0
105 3 105 4 0 57 -48 118 -106 98 -94 112 -104 114 -83 1 13 4 81 5 152 3 107
1 127 -12 127 -13 0 -14 -17 -12 -105z"/>
<path d="M2105 721 l0 -151 90 0 c72 0 96 4 123 20 96 59 96 206 0 256 -22 12
-64 19 -123 22 l-90 4 0 -151z m201 98 c50 -46 52 -156 4 -203 -17 -17 -33
-21 -88 -21 l-67 0 -3 114 c-1 63 0 121 3 129 9 24 120 10 151 -19z"/>
<path d="M2761 853 c114 -134 132 -169 123 -237 -7 -46 -7 -46 23 -46 l30 0
-9 48 c-12 65 -7 80 63 167 33 42 58 79 55 82 -9 9 -33 -15 -82 -84 -25 -35
-50 -63 -54 -61 -5 2 -31 35 -57 73 -39 57 -54 71 -78 73 -28 4 -29 3 -14 -15z"/>
</g>
</svg>
