<svg xmlns="http://www.w3.org/2000/svg" viewBox="0 0 423 102.77"><title>MikroTik logo</title><polygon points="17.76 33.16 0 101.33 7.56 101.33 23.03 38.7 23.25 38.7 36.43 101.33 44.22 101.33 89.47 39.66 89.7 39.66 72.87 101.33 80.54 101.33 98.07 33.16 86.73 33.16 41.82 94.36 29.1 33.16 17.76 33.16" style="fill:#676867"/><polygon points="105.43 52.07 92.7 101.33 99.92 101.33 112.64 52.07 105.43 52.07" style="fill:#676867"/><polygon points="123.01 52.06 110.45 101.33 117.66 101.33 122.25 83.48 134.85 74.7 150.55 101.33 158.45 101.33 140.58 71.07 168.53 52.07 158.91 52.07 124.31 76.12 124.08 75.94 130.24 52.06 123.01 52.06" style="fill:#676867"/><path d="M473.28,512.68l-12.72,49.27h7.24l6.65-25.77c2.4-9.26,9.28-17.95,22.23-18.14,1.37,0,2.75.1,4.12.1l1.6-6c-1.26-.1-2.64-.1-3.89-.1-10.57-.1-16.84,5-21.42,12h-.23l3-11.36Z" transform="translate(-300.5 -460.62)" style="fill:#676867"/><path d="M552.46,530.54c0-12.13-9.62-19.28-23.37-19.28-21.08,0-33,15.47-33,31.6,0,12.33,8.37,20.53,23.6,20.53,21.88,0,32.77-16.23,32.77-32.84m-7.22,1.24c0,11.45-8.37,26.54-24.17,26.54-12,0-17.76-6.49-17.76-16,0-11.55,8.71-26,24.51-26,11.57,0,17.42,6.3,17.42,15.46" transform="translate(-300.5 -460.62)" style="fill:#676867"/><polygon points="321.23 52.03 325.92 33.15 255.34 33.15 250.68 52.06 273.31 52.06 273.31 52.07 298.56 52.07 298.56 52.06 321.23 52.03" style="fill:#676867"/><polygon points="271.08 61.09 261.07 101.32 286.28 101.32 296.31 61.1 296.31 61.08 271.08 61.08 271.08 61.09" style="fill:#676867"/><path d="M625.78,521.71l-10,40.22H638.5l10-40.22Zm25-9.06,4.71-18.88H632.77L628,512.67Z" transform="translate(-300.5 -460.62)" style="fill:#676867"/><polygon points="364.35 33.15 347.39 101.32 370.07 101.32 373.62 87.19 378.78 83.37 386.8 101.32 411.43 101.32 396.3 71.72 423 51.77 395.85 51.77 379.12 66.28 378.89 66.28 387.03 33.15 364.35 33.15" style="fill:#676867"/><path d="M415.68,460.62c2.77,19.25,13.1,30.93,34.16,31.89-19.84,7.59-40.29-10.25-34.16-31.89" transform="translate(-300.5 -460.62)" style="fill:#676867"/><path d="M404.67,464c.24-.05.26.11.28.28.67,12.27,5.85,21.58,12.71,27.95a40.06,40.06,0,0,0,29.06,11.29c-24.32,9.69-49.88-13.59-42.06-39.52" transform="translate(-300.5 -460.62)" style="fill:#676867"/></svg>