<svg fill="none" height="48" viewBox="0 0 48 48" width="48" xmlns="http://www.w3.org/2000/svg" xmlns:xlink="http://www.w3.org/1999/xlink"><radialGradient id="a" cx="0" cy="0" gradientTransform="matrix(0 48 -48 0 24 0)" gradientUnits="userSpaceOnUse" r="1"><stop offset="0" stop-color="#006fff"/><stop offset="1" stop-color="#003c9e"/></radialGradient><linearGradient id="b" gradientUnits="userSpaceOnUse" x1="40.8043" x2="41.3481" y1="40.0219" y2="5.32562"><stop offset="0" stop-color="#c2c4ce"/><stop offset=".39697" stop-color="#d6d9e2"/><stop offset="1" stop-color="#fff"/></linearGradient><radialGradient id="c" cx="0" cy="0" gradientTransform="matrix(0 13.875 -13.875 0 24 17.0625)" gradientUnits="userSpaceOnUse" r="1"><stop offset="0" stop-color="#005ed9"/><stop offset="1" stop-color="#003386"/></radialGradient><path d="m0 15c0-5.25049 0-7.87574 1.02181-9.88116.89882-1.76402 2.33301-3.19821 4.09703-4.09703 2.00542-1.02181 4.63067-1.02181 9.88116-1.02181h18c5.2505 0 7.8757 0 9.8812 1.02181 1.764.89882 3.1982 2.33301 4.097 4.09703 1.0218 2.00542 1.0218 4.63067 1.0218 9.88116v18c0 5.2505 0 7.8757-1.0218 9.8812-.8988 1.764-2.333 3.1982-4.097 4.097-2.0055 1.0218-4.6307 1.0218-9.8812 1.0218h-18c-5.25049 0-7.87574 0-9.88116-1.0218-1.76402-.8988-3.19821-2.333-4.09703-4.097-1.02181-2.0055-1.02181-4.6307-1.02181-9.8812z" fill="url(#a)"/><path d="m39.75 24c0 8.6985-7.0515 15.75-15.75 15.75s-15.75-7.0515-15.75-15.75 7.0515-15.75 15.75-15.75 15.75 7.0515 15.75 15.75z" fill="url(#b)"/><path clip-rule="evenodd" d="m30.9375 24c0-3.8315-3.106-6.9375-6.9375-6.9375s-6.9375 3.106-6.9375 6.9375 3.106 6.9375 6.9375 6.9375 6.9375-3.106 6.9375-6.9375zm-12.5625 0c0-3.1066 2.5184-5.625 5.625-5.625s5.625 2.5184 5.625 5.625-2.5184 5.625-5.625 5.625-5.625-2.5184-5.625-5.625z" fill="url(#c)" fill-rule="evenodd"/></svg>
